<svg id="visual" viewBox="0 0 960 540" width="960" height="540" xmlns="http://www.w3.org/2000/svg" xmlns:xlink="http://www.w3.org/1999/xlink" version="1.1"><rect x="0" y="0" width="960" height="540" fill="#009bff"></rect><path d="M0 447L22.8 448C45.7 449 91.3 451 137 441.8C182.7 432.7 228.3 412.3 274 395.5C319.7 378.7 365.3 365.3 411.2 368.2C457 371 503 390 548.8 405.7C594.7 421.3 640.3 433.7 686 426.2C731.7 418.7 777.3 391.3 823 387.2C868.7 383 914.3 402 937.2 411.5L960 421L960 541L937.2 541C914.3 541 868.7 541 823 541C777.3 541 731.7 541 686 541C640.3 541 594.7 541 548.8 541C503 541 457 541 411.2 541C365.3 541 319.7 541 274 541C228.3 541 182.7 541 137 541C91.3 541 45.7 541 22.8 541L0 541Z" fill="#1e1e1e" stroke-linecap="round" stroke-linejoin="miter"></path></svg>